<?xml version="1.0" encoding="UTF-8"?>
<svg width="150px" height="50px" viewBox="0 0 150 50" version="1.1" xmlns="http://www.w3.org/2000/svg" xmlns:xlink="http://www.w3.org/1999/xlink">
    <!-- Generator: Sketch 59.1 (86144) - https://sketch.com -->
    <title>Apple</title>
    <desc>Created with Sketch.</desc>
    <g id="SC---Login-/-Signup" stroke="none" stroke-width="1" fill="none" fill-rule="evenodd">
        <g id="Login-Email" transform="translate(-915.000000, -693.000000)">
            <g id="Apple" transform="translate(915.000000, 693.000000)">
                <rect id="Rectangle" fill="#313044" x="0" y="0" width="150" height="50" rx="10"></rect>
                <g id="apple" transform="translate(10.000000, 14.000000)" fill="#FFFFFF" fill-rule="nonzero">
                    <path d="M1.03212539,8.42016326 C-1.03687756,11.802429 0.278425772,16.9352034 2.56640522,20.0473867 C3.70846918,21.6033272 4.86473571,23 6.44844372,23 C6.47829321,23 6.50822295,22.9994709 6.53887484,22.998337 C7.28294559,22.9703688 7.82063762,22.7545599 8.34051623,22.5460076 C8.9241861,22.3116793 9.52783586,22.0694139 10.4746745,22.0694139 C11.3754551,22.0694139 11.9502985,22.3038179 12.5062051,22.5304361 C13.0540877,22.7537284 13.6184196,22.9847309 14.4522795,22.9699908 C16.2361878,22.9386967 17.3314715,21.4315872 18.2978086,20.1020381 C19.3061918,18.7138314 19.8120283,17.3659896 19.9826999,16.8509207 L19.9896006,16.8304359 C20.0220981,16.7388966 19.9762005,16.6389669 19.8830412,16.5986776 C19.8804735,16.5975437 19.8710051,16.5938398 19.8683571,16.5927816 C19.5542153,16.4717623 16.7985939,15.3201516 16.769627,12.1813607 C16.7427464,9.63126308 18.8368647,8.28085126 19.2568438,8.03609148 L19.2764225,8.02460183 C19.3219189,7.99701155 19.3536139,7.95324505 19.3643662,7.9032046 C19.3751184,7.85323974 19.3638847,7.80123396 19.3333933,7.75920603 C17.8879398,5.76650765 15.6724978,5.46618936 14.7805437,5.43005744 C14.6511157,5.41788748 14.5175151,5.41176471 14.3833529,5.41176471 C13.3357321,5.41176471 12.3321633,5.78449802 11.5259062,6.08398482 C10.9693576,6.29072293 10.4886364,6.46926605 10.1570824,6.46926605 C9.78452543,6.46926605 9.30107603,6.28853083 8.74123761,6.07929825 C7.99259314,5.79938921 7.14404918,5.4822144 6.24575606,5.4822144 C6.22433183,5.4822144 6.20322856,5.48244117 6.18244625,5.48281912 C4.09378437,5.51177001 2.12018745,6.63745336 1.03212539,8.42016326 Z" id="XMLID_229_"></path>
                    <path d="M14.9285338,0.000140037774 C13.6068166,0.0469301988 12.0213093,0.754102991 11.0736441,1.7189132 C10.2682711,2.52986977 9.48151276,3.88197424 9.68878833,5.24486522 C9.70178498,5.33013701 9.78160956,5.39594934 9.88030023,5.40258159 C9.96951593,5.40863079 10.0605763,5.41169182 10.1513013,5.41176471 C11.4436712,5.41176471 12.8378342,4.79030099 13.7899435,3.78963291 C14.792027,2.73299155 15.2987286,1.37695146 15.145452,0.1623022 C15.1333777,0.067118477 15.0370348,-0.00357693764 14.9285338,0.000140037774 Z" id="XMLID_230_"></path>
                </g>
                <text id="Download-on-the" font-family="Avalon-Bold, Avalon" font-size="10" font-weight="bold" fill="#FFFFFF">
                    <tspan x="40" y="19">Download on the</tspan>
                </text>
                <text id="App-Store" font-family="Avalon-Bold, Avalon" font-size="18" font-weight="bold" fill="#FFFFFF">
                    <tspan x="40" y="36">App Store</tspan>
                </text>
            </g>
        </g>
    </g>
</svg>