<?xml version="1.0" encoding="UTF-8"?>
<svg width="150px" height="50px" viewBox="0 0 150 50" version="1.1" xmlns="http://www.w3.org/2000/svg" xmlns:xlink="http://www.w3.org/1999/xlink">
    <!-- Generator: Sketch 59.1 (86144) - https://sketch.com -->
    <title>Google</title>
    <desc>Created with Sketch.</desc>
    <g id="SC---Login-/-Signup" stroke="none" stroke-width="1" fill="none" fill-rule="evenodd">
        <g id="Login-Email" transform="translate(-1075.000000, -693.000000)">
            <g id="Google" transform="translate(1075.000000, 693.000000)">
                <rect id="Rectangle" fill="#313044" x="0" y="0" width="150" height="50" rx="10"></rect>
                <text id="Get-it-on" font-family="Avalon-Bold, Avalon" font-size="10" font-weight="bold" fill="#FFFFFF">
                    <tspan x="37" y="19">Get it on</tspan>
                </text>
                <text id="Play" font-family="Avalon-Bold, Avalon" font-size="16" font-weight="bold" fill="#FFFFFF">
                    <tspan x="89" y="34">Play</tspan>
                </text>
                <path d="M80.0178597,30.2953637 L83.5799834,28.8115769 C83.383422,28.3120948 82.7957029,27.9644663 82.1010795,27.9644663 C81.2105451,27.9644663 79.9733563,28.751635 80.0178597,30.2953637 L80.0178597,30.2953637 Z M84.1989029,31.7332018 L85.5569492,32.6409206 C85.1199875,33.2922421 84.0627632,34.4124084 82.2365406,34.4124084 C79.9733563,34.4124084 78.3383937,32.6562321 78.3383937,30.4165659 C78.3383937,28.0390391 79.987974,26.420057 82.0406437,26.420057 C84.1085814,26.420057 85.1199734,28.0703427 85.4513597,28.9634162 L85.6326531,29.4176017 L80.3047426,31.6272971 C80.7124831,32.4297916 81.3460203,32.8380424 82.2365548,32.8380424 C83.1264107,32.8380424 83.7460088,32.3985022 84.1989171,31.7325213 L84.1989029,31.7332018 Z M75.5645372,34.1699899 L77.3150559,34.1699899 L77.3150559,22.4242287 L75.5645372,22.4242287 L75.5645372,34.1699899 Z M72.7083324,30.4312253 C72.7083324,29.0240244 71.7719798,27.994423 70.5799589,27.994423 C69.3733203,27.994423 68.3612638,29.0240102 68.3612638,30.4312253 C68.3612638,31.8237809 69.3733203,32.8380566 70.5792944,32.8380566 C71.7719657,32.8380566 72.7083324,31.8237667 72.7083324,30.4312253 Z M74.2470076,26.6624755 L74.2470076,33.8370066 C74.2470076,36.7886025 72.511771,38 70.4591013,38 C68.5266248,38 67.3644895,36.6980234 66.9275278,35.6384653 L68.4515854,35.0024553 C68.7238647,35.6531105 69.387938,36.4249677 70.4591013,36.4249677 C71.7719798,36.4249677 72.5874749,35.6078138 72.5874749,34.0794109 L72.5874749,33.5040091 L72.527039,33.5040091 C72.1345666,33.9881655 71.3795073,34.4123942 70.4285512,34.4123942 C68.4363174,34.4123942 66.6100948,32.6715437 66.6100948,30.4312111 C66.6100948,28.1762333 68.4363174,26.420057 70.4285512,26.420057 C71.3795215,26.420057 72.1345666,26.8436194 72.527039,27.3131306 L72.5868104,27.3131306 L72.5868104,26.6624755 C72.5867963,26.6624755 74.2470076,26.6624755 74.2470076,26.6624755 Z M55.1414366,30.4165659 C55.1414366,28.9780614 54.1187492,27.994423 52.9333727,27.994423 C51.747982,27.994423 50.7253087,28.9787278 50.7253087,30.4165659 C50.7253087,31.8390783 51.7479961,32.8380424 52.9333727,32.8380424 C54.1187633,32.8380424 55.1414366,31.8390924 55.1414366,30.4165659 L55.1414366,30.4165659 Z M56.8600764,30.4165659 C56.8600764,32.7168403 55.0969474,34.4124084 52.9333727,34.4124084 C50.7697979,34.4124084 49.0066689,32.7168403 49.0066689,30.4165659 C49.0066689,28.1003136 50.7697979,26.4207234 52.9333727,26.4207234 C55.0969333,26.4207234 56.8600764,28.0996472 56.8600764,30.4165659 L56.8600764,30.4165659 Z M63.9451358,30.4165659 C63.9451358,28.9780614 62.9224483,27.994423 61.7370718,27.994423 C60.5516812,27.994423 59.5290078,28.9787278 59.5290078,30.4165659 C59.5290078,31.8390783 60.5516953,32.8380424 61.7370718,32.8380424 C62.9224483,32.8380424 63.9451358,31.8390924 63.9451358,30.4165659 L63.9451358,30.4165659 Z M65.66444,30.4165659 C65.66444,32.7168403 63.9006466,34.4124084 61.7370718,34.4124084 C59.5734971,34.4124084 57.8103681,32.7168403 57.8103681,30.4165659 C57.8103681,28.1003136 59.5734971,26.4207234 61.7370718,26.4207234 C63.9006466,26.4207234 65.66444,28.0996472 65.66444,30.4165659 L65.66444,30.4165659 Z M42.2782163,34.4124084 C38.8681647,34.4124084 36,31.6273112 36,28.2068705 C36,24.7857635 38.8681647,22 42.2788807,22 C44.1661894,22 45.5089677,22.7425527 46.5203597,23.7115459 L45.3276744,24.9069656 C44.6031653,24.2256732 43.6223234,23.6962202 42.2788807,23.6962202 C39.7885849,23.6962202 37.8408403,25.7094601 37.8408403,28.2068563 C37.8408403,30.7042526 39.7885849,32.7168261 42.2788807,32.7168261 C43.8939242,32.7168261 44.8143302,32.066171 45.4033782,31.4754577 C45.8861581,30.9919676 46.2035911,30.2953496 46.3237984,29.341682 L42.2782304,29.341682 L42.2782304,27.6467803 L47.9680631,27.6467803 C48.0291634,27.9491264 48.0590491,28.3127469 48.0590491,28.7056721 C48.0590491,29.9776778 47.7117304,31.5520437 46.5954133,32.67221 C45.5082892,33.8070357 44.1197069,34.4124084 42.2782163,34.4124084 L42.2782163,34.4124084 Z" id="Shape" fill="#FFFFFF"></path>
                <g id="google-play" transform="translate(10.000000, 14.000000)" fill-rule="nonzero">
                    <path d="M19.378235,9.77555881 L15.483024,7.52597092 L10.14633,11.5134249 L15.4829341,15.500879 L19.3914126,13.2435554 C20.0008193,12.873324 20.3644845,12.2263634 20.3644845,11.5135149 C20.3644845,10.8006664 20.0007743,10.1537508 19.378235,9.77555881 Z" id="Path" fill="#FF9100"></path>
                    <path d="M11.49557,11.5135149 C11.4897233,11.5210257 6.77705275,17.5801928 6.7732299,17.585095 L0.634187787,22.4198718 C0.256355605,22.0420396 0.0270297752,21.5294183 0.0270297752,20.9626476 L0.0270297752,2.03092106 C0.0270297752,1.46428523 0.256355605,0.951529041 0.634187787,0.573786808 L6.7732299,5.44193477 C6.77705275,5.44683701 11.4897233,11.5060041 11.49557,11.5135149 Z" id="Path" fill="#25D9F8"></path>
                    <polygon id="Path" fill="#00C0F1" points="11.49557 11.5135149 10.14633 13.2539895 10.14633 9.77295028"></polygon>
                    <path d="M15.4893654,7.51971944 L11.49557,11.5135149 L0.634187787,0.573831783 C0.769066815,0.452355206 0.904035792,0.357908404 1.05245219,0.263461602 C1.70004243,-0.10078823 2.46915422,-0.0873408043 3.10334201,0.303983778 L10.14633,4.44349715 L15.4893654,7.51971944 Z" id="Path" fill="#7FE881"></path>
                    <polygon id="Path" fill="#5BC980" points="15.4893654 7.51971944 11.49557 11.5135149 10.14633 10.1642749 10.14633 4.44349715"></polygon>
                    <path d="M15.4893654,15.5072204 L10.14633,18.5835326 L3.08984961,22.7032122 C2.766032,22.8920608 2.4152296,23 2.05088981,23 C1.71357981,23 1.3762698,22.9055532 1.05245219,22.730152 C0.904035792,22.6357052 0.769066815,22.5413034 0.634187787,22.4198718 L11.49557,11.5135149 L15.4893654,15.5072204 Z" id="Path" fill="#FF637B"></path>
                    <polygon id="Path" fill="#E63950" points="15.4893654 15.5072204 10.14633 18.5835326 10.14633 12.8627549 11.49557 11.5135149"></polygon>
                </g>
            </g>
        </g>
    </g>
</svg>